name Walk4.mot
datacolumns 19
datarows 12
range 1.19500000 1.25000000
endheader

                time	   L_ground_force_vx	   L_ground_force_vy	   L_ground_force_vz	   L_ground_force_px	   L_ground_force_py	   L_ground_force_pz	   R_ground_force_vx	   R_ground_force_vy	   R_ground_force_vz	   R_ground_force_px	   R_ground_force_py	   R_ground_force_pz	   L_ground_torque_x	   L_ground_torque_y	   L_ground_torque_z	   R_ground_torque_x	   R_ground_torque_y	   R_ground_torque_z	
          1.19500000	        -15.43084464	        194.69343164	        -25.93597607	         -0.06660867	          0.00000000	          0.00055357	         -0.00000000	          0.00000000	          0.00000000	          0.00000000	          0.00000000	          0.00000000	          0.00000000	          0.28822549	          0.00000000	          0.00000000	         -0.00000000	          0.00000000	
          1.20000000	        -24.28794769	        261.55628872	        -32.41431385	         -0.14178871	          0.00000000	          0.00312404	         -0.00000000	          0.00000000	          0.00000000	          0.00000000	          0.00000000	          0.00000000	          0.00000000	          0.37116109	          0.00000000	          0.00000000	          0.00000000	          0.00000000	
          1.20500000	        -34.74315374	        329.45014610	        -38.94965392	         -0.20786727	          0.00000000	          0.00525213	         -0.00000000	          0.00000000	          0.00000000	          0.00000000	          0.00000000	          0.00000000	          0.00000000	          0.46062569	          0.00000000	          0.00000000	          0.00000000	          0.00000000	
          1.21000000	        -46.56322518	        393.66588782	        -44.67826508	         -0.26275505	          0.00000000	          0.00687764	         -0.00000000	          0.00000000	          0.00000000	          0.00000000	          0.00000000	          0.00000000	          0.00000000	          0.55142260	          0.00000000	          0.00000000	          0.00000000	          0.00000000	
          1.21500000	        -59.29955112	        450.89277171	        -48.63075371	         -0.30599544	          0.00000000	          0.00796882	         -0.00000000	          0.00000000	          0.00000000	          0.00000000	          0.00000000	          0.00000000	          0.00000000	          0.63937377	          0.00000000	          0.00000000	          0.00000000	          0.00000000	
          1.22000000	        -72.28805264	        499.63835689	        -50.07792158	         -0.33821738	          0.00000000	          0.00852097	         -0.00000000	          0.00000001	          0.00000000	          0.00000000	          0.00000000	          0.00000000	          0.00000000	          0.71917254	          0.00000000	          0.00000000	          0.00000000	          0.00000000	
          1.22500000	        -84.76061565	        539.64312655	        -48.72577126	         -0.36069270	          0.00000000	          0.00855666	         -0.00000000	          0.00000001	          0.00000000	          0.00000000	          0.00000000	          0.00000000	          0.00000000	          0.78337547	          0.00000000	          0.00000000	          0.00000000	          0.00000000	
          1.23000000	        -96.02228938	        571.61252480	        -44.71564522	         -0.37499886	          0.00000000	          0.00811748	         -0.00000000	          0.00000001	          0.00000000	          0.00000000	          0.00000000	          0.00000000	          0.00000000	          0.82392818	          0.00000000	          0.00000000	          0.00000000	          0.00000000	
          1.23500000	       -105.63346568	        597.10087334	        -38.49334577	         -0.38277774	          0.00000000	          0.00725386	         -0.00000000	          0.00000001	          0.00000000	          0.00000000	          0.00000000	          0.00000000	          0.00000000	          0.83493778	          0.00000000	          0.00000000	          0.00000000	          0.00000000	
          1.24000000	       -113.53327592	        618.28178906	        -30.64110714	         -0.38557610	          0.00000000	          0.00601627	         -0.00000000	          0.00000001	          0.00000000	          0.00000000	          0.00000000	          0.00000000	          0.00000000	          0.81483630	          0.00000000	          0.00000000	          0.00000000	          0.00000000	
          1.24500000	       -120.02970721	        637.60059682	        -21.76237302	         -0.38475473	          0.00000000	          0.00445270	         -0.00000000	          0.00000000	          0.00000000	         -0.00000000	          0.00000000	         -0.00000000	          0.00000000	          0.76660405	          0.00000000	          0.00000000	          0.00000000	          0.00000000	
          1.25000000	       -125.63184452	        657.35874150	        -12.44320233	         -0.38144945	          0.00000000	          0.00261108	         -0.00000000	         -0.00000000	         -0.00000000	         -0.00000000	          0.00000000	         -0.00000000	          0.00000000	          0.69603365	          0.00000000	          0.00000000	          0.00000000	          0.00000000	
